<svg width="747" height="255" viewBox="0 0 747 255" fill="none" xmlns="http://www.w3.org/2000/svg">
<path d="M292.86 160.53L268.34 92.38H255.15V0.240005H0.640015V254.76H255.15V131.72L279.93 193.55H305.41L345.96 92.38H317.58L292.86 160.53Z" fill="#FF0066"/>
<path d="M382.08 92.38H354.66V193.55H382.08V92.38Z" fill="#FF0066"/>
<path d="M426.12 121.92C426.12 116.32 431.12 112.07 440.02 112.07C449.86 112.07 454.69 117.87 455.27 124.24H481.72C480.95 109.37 470.52 90.06 440.21 90.06C415.31 90.06 399.67 105.12 399.67 123.46C399.67 163.62 455.85 147.6 455.85 164.59C455.85 170.18 450.44 173.85 440.02 173.85C428.63 173.85 423.61 167.48 423.22 160.72H395.42C396.77 179.65 407.58 195.86 439.25 195.86C466.66 195.86 482.11 181.58 482.11 163.43C482.11 121.92 426.12 138.91 426.12 121.92Z" fill="#FF0066"/>
<path d="M523.39 92.38H495.97V193.55H523.39V92.38Z" fill="#FF0066"/>
<path d="M588.49 90.06C556.06 90.06 535.4 114.2 535.4 142.96C535.4 171.72 556.06 195.86 588.49 195.86C620.92 195.86 641.59 171.73 641.59 142.96C641.59 114.19 620.93 90.06 588.49 90.06ZM588.49 171.73C574.02 171.73 562.82 161.11 562.82 142.96C562.82 124.81 574 114.2 588.49 114.2C602.98 114.2 614.17 124.82 614.17 142.96C614.17 161.1 603 171.73 588.49 171.73Z" fill="#FF0066"/>
<path d="M709.1 90.06C694.04 90.06 683.62 96.06 678.98 104.74V92.38H653.69V193.55H681.11V135.63C681.11 122.11 688.44 113.63 701.76 113.63C713.93 113.63 718.95 121.74 718.95 133.51V193.56H746.36V130.41C746.36 106.28 733.43 90.06 709.1 90.06Z" fill="#FF0066"/>
<path d="M89.79 80.39C92.6741 80.3565 95.4838 79.4706 97.8656 77.8439C100.247 76.2172 102.095 73.9223 103.175 71.2481C104.256 68.5738 104.521 65.6397 103.938 62.815C103.355 59.9903 101.949 57.4012 99.898 55.3735C97.8467 53.3458 95.2415 51.9702 92.4103 51.4197C89.579 50.8693 86.6482 51.1685 83.9866 52.2799C81.325 53.3913 79.0517 55.2651 77.4526 57.6655C75.8535 60.0659 75.0002 62.8857 75 65.77C75.0065 67.7024 75.3948 69.6145 76.1425 71.3965C76.8901 73.1784 77.9825 74.795 79.3568 76.1535C80.7311 77.5121 82.3603 78.5857 84.1507 79.3127C85.9412 80.0397 87.8576 80.4058 89.79 80.39V80.39Z" fill="white"/>
<path d="M59 158.71C58.1603 162.317 57.721 166.006 57.69 169.71C57.69 182.59 64.69 191.14 79.52 191.14C91.83 191.14 101.81 183.83 108.99 172.02L104.61 189.63H129.05L143.05 133.63C146.52 119.4 153.29 112 163.55 112C171.62 112 176.64 117 176.64 125.31C176.677 127.97 176.31 130.62 175.55 133.17L168.35 159C167.323 162.545 166.808 166.219 166.82 169.91C166.82 182.14 174.02 191.08 189.08 191.08C201.96 191.08 212.22 182.79 217.89 162.93L208.29 159.22C203.49 172.53 199.29 174.93 196.07 174.93C192.85 174.93 191.07 172.75 191.07 168.39C191.164 166.098 191.53 163.826 192.16 161.62L199.16 136.53C200.736 131.369 201.548 126.006 201.57 120.61C201.57 101.84 190.22 92.04 176.46 92.04C163.59 92.04 150.46 103.66 143.94 115.88L148.75 93.94H111.38L106.14 113.27H123.61L112.85 156.32C104.41 175.09 88.85 175.39 86.95 174.96C83.75 174.24 81.71 173.02 81.71 168.87C81.8076 165.486 82.3215 162.128 83.24 158.87L99.61 93.93H58.14L52.9 113.26H70.14L59 158.71Z" fill="white"/>
</svg>
