<svg width="53" height="32" viewBox="0 0 53 32" fill="none" xmlns="http://www.w3.org/2000/svg">
<path d="M36.491 11.867H37.704V18.023C37.704 19.653 36.99 20.779 35.318 20.779C34.8234 20.7864 34.3312 20.7086 33.863 20.549V19.369C34.2625 19.5239 34.6876 19.602 35.116 19.599C36.14 19.599 36.494 18.986 36.494 18.103L36.491 11.867ZM39.913 11.394C40.0229 11.3869 40.133 11.4027 40.2363 11.4406C40.3396 11.4785 40.4339 11.5376 40.513 11.614C40.5897 11.6909 40.6491 11.7834 40.687 11.8851C40.725 11.9869 40.7407 12.0956 40.733 12.204C40.7328 12.4185 40.6475 12.6241 40.4958 12.7758C40.3441 12.9274 40.1385 13.0127 39.924 13.013C39.7096 13.0127 39.5039 12.9274 39.3523 12.7758C39.2006 12.6241 39.1153 12.4185 39.115 12.204C39.1079 12.0942 39.1238 11.9841 39.1617 11.8808C39.1995 11.7774 39.2586 11.6832 39.335 11.604C39.4119 11.5273 39.5044 11.468 39.6062 11.43C39.708 11.3921 39.8167 11.3764 39.925 11.384L39.913 11.394ZM39.32 13.982H40.48V20.72H39.32V13.982Z" fill="#253858"/>
<path d="M42.23 13.98H43.362V15.165C43.762 14.37 44.434 13.805 45.748 13.885V15.017C44.266 14.864 43.362 15.314 43.362 16.741V20.721H42.23V13.98Z" fill="#253858"/>
<path d="M51.176 19.505C50.744 20.405 49.936 20.853 48.899 20.853C47.107 20.853 46.204 19.331 46.204 17.349C46.204 15.449 47.147 13.845 49.034 13.845C50.017 13.845 50.772 14.289 51.178 15.165V13.98H52.338V20.718H51.178L51.176 19.505ZM49.208 19.775C50.246 19.775 51.176 19.115 51.176 17.619V17.074C51.176 15.578 50.328 14.918 49.338 14.918C48.03 14.918 47.358 15.78 47.358 17.344C47.364 18.967 48.01 19.776 49.211 19.776L49.208 19.775Z" fill="#253858"/>
<path d="M30.8011 15.1246L16.0145 0.337936L1.22781 15.1246C0.995999 15.3573 0.865845 15.6725 0.865845 16.001C0.865845 16.3295 0.995999 16.6446 1.22781 16.8773L16.0145 31.664L30.8011 16.8773C31.0329 16.6446 31.1631 16.3295 31.1631 16.001C31.1631 15.6725 31.0329 15.3573 30.8011 15.1246V15.1246ZM16.0145 20.6306L11.3833 15.9994L16.0145 11.3683L20.6456 15.9994L16.0145 20.6306Z" fill="#2684FF"/>
<path d="M16.0145 11.3989C14.5579 9.94245 13.7367 7.96881 13.7304 5.90899C13.7241 3.84917 14.5332 1.87055 15.9808 0.405235L5.81616 10.5057L11.3313 16.0208L16.0145 11.3989Z" fill="url(#paint0_linear_104_25905)"/>
<path d="M20.6578 15.9872L16.0144 20.6306C16.739 21.3547 17.3137 22.2145 17.7059 23.1608C18.0981 24.1071 18.2999 25.1214 18.2999 26.1458C18.2999 27.1701 18.0981 28.1844 17.7059 29.1307C17.3137 30.0771 16.739 30.9368 16.0144 31.6609L26.1699 21.5054L20.6578 15.9872Z" fill="url(#paint1_linear_104_25905)"/>
<defs>
<linearGradient id="paint0_linear_104_25905" x1="15.1886" y1="6.68513" x2="8.72211" y2="13.1516" gradientUnits="userSpaceOnUse">
<stop offset="0.18" stop-color="#0052CC"/>
<stop offset="1" stop-color="#2684FF"/>
</linearGradient>
<linearGradient id="paint1_linear_104_25905" x1="16.8984" y1="25.2617" x2="23.3527" y2="18.8075" gradientUnits="userSpaceOnUse">
<stop offset="0.18" stop-color="#0052CC"/>
<stop offset="1" stop-color="#2684FF"/>
</linearGradient>
</defs>
</svg>
