<svg width="110" height="34" viewBox="0 0 110 34" fill="none" xmlns="http://www.w3.org/2000/svg">
<path fill-rule="evenodd" clip-rule="evenodd" d="M4.99602 23.93L0.650024 19.07L13.953 14.228L16.023 19.918L4.99602 23.93Z" fill="#F89920"/>
<path fill-rule="evenodd" clip-rule="evenodd" d="M4.96401 23.84L4.76001 30.36L18.063 25.518L15.993 19.828L4.96401 23.84Z" fill="#FFBE22"/>
<path fill-rule="evenodd" clip-rule="evenodd" d="M41.933 10.495C43.831 15.995 37.715 23.221 28.201 26.685C18.687 30.149 9.35602 28.545 7.27502 23.11L41.933 10.495Z" fill="#F0670A"/>
<path fill-rule="evenodd" clip-rule="evenodd" d="M41.9341 10.495C39.8661 5.048 30.5261 3.437 21.0021 6.903C11.4781 10.369 5.35806 17.608 7.27506 23.1L41.9341 10.495Z" fill="#FFD00E"/>
<path fill-rule="evenodd" clip-rule="evenodd" d="M41.933 10.495C43.116 14.175 36.476 19.895 26.991 23.357C17.506 26.819 8.73498 26.687 7.27698 23.109L41.933 10.495Z" fill="#F89920"/>
<path fill-rule="evenodd" clip-rule="evenodd" d="M41.933 10.495C40.496 6.899 31.713 6.771 22.213 10.229C12.713 13.687 6.06599 19.429 7.27699 23.109L41.933 10.495Z" fill="#FFBE22"/>
<path d="M25.9451 5.50399C25.0401 2.37399 24.0101 0.637994 22.8391 0.670994C20.5751 0.734994 19.8141 7.91399 20.5471 17.113C21.2871 26.41 23.2071 33.393 25.6031 33.33C27.0311 33.293 27.8351 31.008 28.1181 27.04C28.1241 26.96 28.0331 27.015 28.0381 26.932C28.0381 26.932 28.0261 26.787 27.9731 26.784L27.6691 26.764C27.4191 30.614 26.6671 32.834 25.5891 32.864C23.6211 32.914 21.7191 26.007 21.0091 17.076C20.3091 8.29099 21.0631 1.18599 22.8511 1.13599C23.6971 1.11199 24.6461 2.71099 25.4851 5.59399L25.9451 5.49399V5.50399Z" fill="#F0670A"/>
<path d="M14.725 3.27C12.795 4.458 15.727 11.055 20.961 18.656C26.251 26.336 31.406 31.424 33.448 30.172C34.588 29.472 34.268 27.348 32.798 24.142C32.765 24.062 32.692 24.009 32.598 23.999C32.504 23.989 32.43 24.029 32.382 24.099C32.334 24.169 32.327 24.259 32.366 24.336C33.732 27.316 34.026 29.266 33.194 29.776C31.514 30.806 26.416 25.772 21.334 18.392C16.336 11.134 13.436 4.606 14.959 3.667C15.769 3.169 17.691 4.371 20.234 6.967C20.262 6.997 20.424 7.164 20.461 7.175C20.541 7.199 20.501 7.032 20.563 6.97C20.607 6.927 20.633 6.868 20.633 6.806C20.633 6.744 20.61 6.686 20.566 6.641C17.85 3.867 15.812 2.593 14.714 3.269L14.725 3.27Z" fill="#F0670A"/>
<path fill-rule="evenodd" clip-rule="evenodd" d="M62.91 19.757H68V22.3H59.942V11.7H68V14.244H62.91V15.517H66.09V18.062H62.91V19.757ZM86.023 19.757H90.688V22.3H83.055V11.7H86.025L86.023 19.757ZM93.657 11.699H96.627V22.3H93.657V11.699ZM100.017 11.699V22.3H102.774V16.362L106.591 22.3H109.348V11.698H106.591V17.724L102.774 11.714L100.017 11.699Z" fill="#574751"/>
<path d="M73.9359 16.576H76.0599C76.2269 16.576 76.3922 16.5431 76.5464 16.4791C76.7006 16.4152 76.8407 16.3215 76.9587 16.2033C77.0766 16.0852 77.1701 15.9449 77.2338 15.7906C77.2975 15.6363 77.3302 15.4709 77.3299 15.304C77.3303 15.137 77.2978 14.9715 77.2341 14.8171C77.1705 14.6626 77.077 14.5223 76.959 14.404C76.8411 14.2858 76.7009 14.192 76.5466 14.128C76.3924 14.0639 76.227 14.031 76.0599 14.031H73.9349V16.576H73.9359ZM76.4839 11.699C77.4399 11.699 78.3559 12.079 79.0319 12.755C79.7079 13.431 80.0869 14.348 80.0869 15.305C80.0869 16.262 79.7069 17.178 79.0319 17.855C78.3569 18.532 77.4399 18.911 76.4839 18.911H74.2339V22.3H71.1799V11.698H76.4829L76.4839 11.699Z" fill="#574751"/>
<path fill-rule="evenodd" clip-rule="evenodd" d="M56.55 14.243V11.7H47.856V14.244H52.733L47.856 19.758V22.303H56.55V19.758H51.885L56.55 14.243Z" fill="#574751"/>
</svg>
